<svg xmlns="http://www.w3.org/2000/svg" xmlns:xlink="http://www.w3.org/1999/xlink" width="2000" zoomAndPan="magnify" viewBox="0 0 1500 1499.999933" height="2000" preserveAspectRatio="xMidYMid meet" version="1.0"><defs><g/><clipPath id="16ec0a3a32"><path d="M 284.222656 282.910156 L 1215.722656 282.910156 L 1215.722656 619.660156 L 284.222656 619.660156 Z M 284.222656 282.910156 " clip-rule="nonzero"/></clipPath><clipPath id="0d6a509935"><path d="M 750.019531 282.910156 C 492.773438 282.910156 284.222656 491.460938 284.222656 748.703125 C 284.222656 1005.949219 492.773438 1214.496094 750.019531 1214.496094 C 1007.261719 1214.496094 1215.8125 1005.949219 1215.8125 748.703125 C 1215.8125 491.460938 1007.28125 282.910156 750.019531 282.910156 Z M 750.019531 1054.152344 C 581.332031 1054.152344 444.570312 917.414062 444.570312 748.703125 C 444.570312 579.996094 581.308594 443.253906 750.019531 443.253906 C 918.726562 443.253906 1055.46875 579.996094 1055.46875 748.703125 C 1055.46875 917.414062 918.707031 1054.152344 750.019531 1054.152344 Z M 750.019531 1054.152344 " clip-rule="nonzero"/></clipPath><clipPath id="747a27fb6c"><path d="M 284.222656 880.457031 L 1215.722656 880.457031 L 1215.722656 1217.207031 L 284.222656 1217.207031 Z M 284.222656 880.457031 " clip-rule="nonzero"/></clipPath><clipPath id="37027a5f49"><path d="M 0.222656 0.457031 L 931.722656 0.457031 L 931.722656 337.078125 L 0.222656 337.078125 Z M 0.222656 0.457031 " clip-rule="nonzero"/></clipPath><clipPath id="ef535d8c94"><path d="M 466.019531 337.078125 C 208.773438 337.078125 0.222656 128.53125 0.222656 -128.714844 C 0.222656 -385.957031 208.773438 -594.507812 466.019531 -594.507812 C 723.261719 -594.507812 931.8125 -385.957031 931.8125 -128.714844 C 931.8125 128.53125 723.28125 337.078125 466.019531 337.078125 Z M 466.019531 -434.164062 C 297.332031 -434.164062 160.570312 -297.421875 160.570312 -128.714844 C 160.570312 39.996094 297.308594 176.734375 466.019531 176.734375 C 634.726562 176.734375 771.46875 39.996094 771.46875 -128.714844 C 771.46875 -297.421875 634.707031 -434.164062 466.019531 -434.164062 Z M 466.019531 -434.164062 " clip-rule="nonzero"/></clipPath><clipPath id="0bf5f21233"><rect x="0" width="932" y="0" height="338"/></clipPath><clipPath id="2ebc066059"><rect x="0" width="414" y="0" height="121"/></clipPath><clipPath id="b1ab434493"><path d="M 594 897 L 661 897 L 661 962 L 594 962 Z M 594 897 " clip-rule="nonzero"/></clipPath><clipPath id="2e05e73a46"><path d="M 594.421875 896.546875 L 661.15625 898.0625 L 659.707031 961.796875 L 592.976562 960.28125 Z M 594.421875 896.546875 " clip-rule="nonzero"/></clipPath><clipPath id="a1525a9256"><path d="M 594.421875 896.546875 L 661.15625 898.0625 L 659.707031 961.796875 L 592.976562 960.28125 Z M 594.421875 896.546875 " clip-rule="nonzero"/></clipPath><clipPath id="4686e8f8d3"><rect x="0" width="732" y="0" height="257"/></clipPath><clipPath id="868baab527"><path d="M 609 520 L 891 520 L 891 634 L 609 634 Z M 609 520 " clip-rule="nonzero"/></clipPath><clipPath id="27d5e1cc69"><path d="M 608.898438 511.570312 L 890.898438 511.019531 L 891.164062 647.515625 L 609.164062 648.070312 Z M 608.898438 511.570312 " clip-rule="nonzero"/></clipPath><clipPath id="b8840c1611"><path d="M 608.898438 511.570312 L 890.898438 511.019531 L 891.164062 647.515625 L 609.164062 648.070312 Z M 608.898438 511.570312 " clip-rule="nonzero"/></clipPath><clipPath id="84c5f6c337"><path d="M 716 897 L 784 897 L 784 962 L 716 962 Z M 716 897 " clip-rule="nonzero"/></clipPath><clipPath id="0ea61b9e69"><path d="M 717.328125 896.546875 L 784.0625 898.0625 L 782.613281 961.796875 L 715.882812 960.28125 Z M 717.328125 896.546875 " clip-rule="nonzero"/></clipPath><clipPath id="55871c377a"><path d="M 717.328125 896.546875 L 784.0625 898.0625 L 782.613281 961.796875 L 715.882812 960.28125 Z M 717.328125 896.546875 " clip-rule="nonzero"/></clipPath><clipPath id="9fb79c5285"><path d="M 841 897 L 908 897 L 908 962 L 841 962 Z M 841 897 " clip-rule="nonzero"/></clipPath><clipPath id="1e8aba08ab"><path d="M 841.449219 896.546875 L 908.183594 898.0625 L 906.734375 961.796875 L 840 960.28125 Z M 841.449219 896.546875 " clip-rule="nonzero"/></clipPath><clipPath id="7e5e2e4f73"><path d="M 841.449219 896.546875 L 908.183594 898.0625 L 906.734375 961.796875 L 840 960.28125 Z M 841.449219 896.546875 " clip-rule="nonzero"/></clipPath></defs><g clip-path="url(#16ec0a3a32)"><g clip-path="url(#0d6a509935)"><path fill="#27643c" d="M 284.222656 282.910156 L 284.222656 619.660156 L 1215.722656 619.660156 L 1215.722656 282.910156 Z M 284.222656 282.910156 " fill-opacity="1" fill-rule="nonzero"/></g></g><path stroke-linecap="butt" transform="matrix(0.75, 0.000000000000000202, -0.000000000000000202, 0.75, 157.400746, 613.540991)" fill="none" stroke-linejoin="miter" d="M 0.00213008 3.997429 L 422.132375 3.997429 " stroke="#27643c" stroke-width="8" stroke-opacity="1" stroke-miterlimit="4"/><g clip-path="url(#747a27fb6c)"><g transform="matrix(1, 0, 0, 1, 284, 880)"><g clip-path="url(#0bf5f21233)"><g clip-path="url(#37027a5f49)"><g clip-path="url(#ef535d8c94)"><path fill="#27643c" d="M 0.222656 337.078125 L 0.222656 0.457031 L 931.722656 0.457031 L 931.722656 337.078125 Z M 0.222656 337.078125 " fill-opacity="1" fill-rule="nonzero"/></g></g></g></g></g><g transform="matrix(1, 0, 0, 1, 543, 1055)"><g clip-path="url(#2ebc066059)"><g fill="#ffffff" fill-opacity="1"><g transform="translate(7.786423, 50.759433)"><g><path d="M 22.75 12.21875 L 4.5 2.421875 L 22.09375 -30.328125 L 40.34375 -20.53125 L 38.53125 -17.15625 L 24.09375 -24.90625 L 18.421875 -14.34375 L 32 -7.046875 L 30.1875 -3.6875 L 16.609375 -10.984375 L 10.140625 1.0625 L 24.578125 8.8125 Z M 22.75 12.21875 "/></g></g></g><g fill="#ffffff" fill-opacity="1"><g transform="translate(54.355145, 74.034605)"><g><path d="M 27.90625 -0.03125 C 26.75 3.03125 24.734375 5 21.859375 5.875 C 18.992188 6.75 15.65625 6.46875 11.84375 5.03125 C 7.71875 3.46875 4.753906 1.738281 2.953125 -0.15625 L 4.421875 -4.0625 C 5.617188 -2.925781 6.988281 -1.863281 8.53125 -0.875 C 10.082031 0.113281 11.679688 0.914062 13.328125 1.53125 C 16.023438 2.550781 18.25 2.804688 20 2.296875 C 21.75 1.785156 22.96875 0.617188 23.65625 -1.203125 C 24.113281 -2.410156 24.25 -3.488281 24.0625 -4.4375 C 23.875 -5.394531 23.332031 -6.410156 22.4375 -7.484375 C 21.550781 -8.554688 20.101562 -9.945312 18.09375 -11.65625 C 15.300781 -14.03125 13.507812 -16.269531 12.71875 -18.375 C 11.925781 -20.488281 12.007812 -22.820312 12.96875 -25.375 C 13.976562 -28.050781 15.789062 -29.800781 18.40625 -30.625 C 21.019531 -31.445312 23.984375 -31.234375 27.296875 -29.984375 C 30.753906 -28.679688 33.695312 -26.847656 36.125 -24.484375 L 33.53125 -21.4375 C 31.125 -23.726562 28.5625 -25.382812 25.84375 -26.40625 C 23.707031 -27.21875 21.859375 -27.390625 20.296875 -26.921875 C 18.742188 -26.460938 17.660156 -25.414062 17.046875 -23.78125 C 16.585938 -22.570312 16.4375 -21.5 16.59375 -20.5625 C 16.75 -19.632812 17.234375 -18.648438 18.046875 -17.609375 C 18.859375 -16.566406 20.207031 -15.25 22.09375 -13.65625 C 25.25 -10.976562 27.226562 -8.628906 28.03125 -6.609375 C 28.84375 -4.597656 28.800781 -2.40625 27.90625 -0.03125 Z M 27.90625 -0.03125 "/></g></g></g><g fill="#ffffff" fill-opacity="1"><g transform="translate(103.215315, 90.860051)"><g><path d="M 16.109375 3.765625 L 11.921875 2.78125 L 19.5 -29.6875 L 8.015625 -32.359375 L 8.875 -36.09375 L 36.03125 -29.765625 L 35.171875 -26.03125 L 23.6875 -28.703125 Z M 16.109375 3.765625 "/></g></g></g><g fill="#ffffff" fill-opacity="1"><g transform="translate(153.754053, 100.911519)"><g><path d="M 4.140625 -2.234375 C 4.273438 -3.359375 4.632812 -4.179688 5.21875 -4.703125 C 5.8125 -5.222656 6.582031 -5.425781 7.53125 -5.3125 C 8.507812 -5.195312 9.238281 -4.816406 9.71875 -4.171875 C 10.207031 -3.523438 10.382812 -2.640625 10.25 -1.515625 C 10.125 -0.421875 9.742188 0.382812 9.109375 0.90625 C 8.484375 1.4375 7.691406 1.644531 6.734375 1.53125 C 5.878906 1.4375 5.195312 1.085938 4.6875 0.484375 C 4.175781 -0.109375 3.992188 -1.015625 4.140625 -2.234375 Z M 4.140625 -2.234375 "/></g></g></g><g fill="#ffffff" fill-opacity="1"><g transform="translate(189.829116, 104.111575)"><g/></g></g><g fill="#ffffff" fill-opacity="1"><g transform="translate(226.122974, 104.197298)"><g><path d="M 26.875 -2.359375 L 2.53125 -0.21875 L 2.21875 -3.84375 L 11.09375 -14.515625 C 13.8125 -17.773438 15.582031 -20.085938 16.40625 -21.453125 C 17.238281 -22.828125 17.835938 -24.140625 18.203125 -25.390625 C 18.578125 -26.648438 18.703125 -27.976562 18.578125 -29.375 C 18.398438 -31.34375 17.660156 -32.851562 16.359375 -33.90625 C 15.066406 -34.96875 13.351562 -35.40625 11.21875 -35.21875 C 9.6875 -35.082031 8.253906 -34.703125 6.921875 -34.078125 C 5.585938 -33.453125 4.132812 -32.394531 2.5625 -30.90625 L 0.078125 -33.578125 C 3.234375 -36.710938 6.820312 -38.457031 10.84375 -38.8125 C 14.320312 -39.113281 17.128906 -38.460938 19.265625 -36.859375 C 21.398438 -35.253906 22.601562 -32.945312 22.875 -29.9375 C 23.082031 -27.59375 22.625 -25.210938 21.5 -22.796875 C 20.382812 -20.390625 18.175781 -17.269531 14.875 -13.4375 L 7.46875 -4.796875 L 7.484375 -4.59375 L 26.53125 -6.265625 Z M 26.875 -2.359375 "/></g></g></g><g fill="#ffffff" fill-opacity="1"><g transform="translate(278.685374, 98.006881)"><g><path d="M 22.40625 -24.1875 C 23.820312 -17.914062 23.890625 -13.007812 22.609375 -9.46875 C 21.335938 -5.925781 18.664062 -3.695312 14.59375 -2.78125 C 10.6875 -1.894531 7.359375 -2.804688 4.609375 -5.515625 C 1.867188 -8.222656 -0.191406 -12.640625 -1.578125 -18.765625 C -3.015625 -25.078125 -3.09375 -29.984375 -1.8125 -33.484375 C -0.539062 -36.984375 2.113281 -39.191406 6.15625 -40.109375 C 10.09375 -40.992188 13.441406 -40.070312 16.203125 -37.34375 C 18.960938 -34.625 21.03125 -30.238281 22.40625 -24.1875 Z M 2.578125 -19.703125 C 3.765625 -14.421875 5.253906 -10.71875 7.046875 -8.59375 C 8.835938 -6.46875 11.085938 -5.710938 13.796875 -6.328125 C 16.546875 -6.941406 18.257812 -8.609375 18.9375 -11.328125 C 19.613281 -14.046875 19.363281 -18.015625 18.1875 -23.234375 C 17.007812 -28.441406 15.53125 -32.113281 13.75 -34.25 C 11.96875 -36.382812 9.703125 -37.144531 6.953125 -36.53125 C 4.242188 -35.914062 2.535156 -34.273438 1.828125 -31.609375 C 1.128906 -28.941406 1.378906 -24.972656 2.578125 -19.703125 Z M 2.578125 -19.703125 "/></g></g></g><g fill="#ffffff" fill-opacity="1"><g transform="translate(329.940996, 84.811063)"><g><path d="M 25.28125 -9.4375 L 2.390625 -0.890625 L 1.125 -4.296875 L 6.828125 -16.953125 C 8.578125 -20.804688 9.671875 -23.503906 10.109375 -25.046875 C 10.546875 -26.597656 10.773438 -28.023438 10.796875 -29.328125 C 10.816406 -30.640625 10.578125 -31.953125 10.078125 -33.265625 C 9.390625 -35.117188 8.273438 -36.378906 6.734375 -37.046875 C 5.203125 -37.710938 3.4375 -37.671875 1.4375 -36.921875 C 0 -36.378906 -1.273438 -35.628906 -2.390625 -34.671875 C -3.515625 -33.722656 -4.632812 -32.320312 -5.75 -30.46875 L -8.84375 -32.390625 C -6.644531 -36.253906 -3.648438 -38.890625 0.140625 -40.296875 C 3.398438 -41.515625 6.269531 -41.632812 8.75 -40.65625 C 11.238281 -39.675781 13.015625 -37.773438 14.078125 -34.953125 C 14.898438 -32.742188 15.09375 -30.328125 14.65625 -27.703125 C 14.21875 -25.085938 12.921875 -21.488281 10.765625 -16.90625 L 5.921875 -6.609375 L 5.984375 -6.421875 L 23.90625 -13.109375 Z M 25.28125 -9.4375 "/></g></g></g><g fill="#ffffff" fill-opacity="1"><g transform="translate(378.959834, 64.851339)"><g><path d="M -4.890625 -15.40625 C -8.347656 -21.851562 -9.675781 -27.34375 -8.875 -31.875 C -8.070312 -36.40625 -5.222656 -39.976562 -0.328125 -42.59375 C 1.359375 -43.5 2.757812 -44.070312 3.875 -44.3125 L 5.609375 -41.109375 C 4.253906 -40.867188 2.835938 -40.351562 1.359375 -39.5625 C -2.160156 -37.675781 -4.257812 -35.144531 -4.9375 -31.96875 C -5.613281 -28.789062 -4.78125 -24.804688 -2.4375 -20.015625 L -2.171875 -20.15625 C -1.898438 -23.613281 0.0078125 -26.289062 3.5625 -28.1875 C 6.507812 -29.769531 9.304688 -30.125 11.953125 -29.25 C 14.597656 -28.375 16.738281 -26.414062 18.375 -23.375 C 20.195312 -19.96875 20.703125 -16.789062 19.890625 -13.84375 C 19.078125 -10.894531 17.085938 -8.570312 13.921875 -6.875 C 10.523438 -5.050781 7.144531 -4.878906 3.78125 -6.359375 C 0.425781 -7.847656 -2.460938 -10.863281 -4.890625 -15.40625 Z M 12.171875 -10.015625 C 14.296875 -11.160156 15.585938 -12.710938 16.046875 -14.671875 C 16.503906 -16.628906 16.054688 -18.875 14.703125 -21.40625 C 13.535156 -23.570312 12.070312 -24.984375 10.3125 -25.640625 C 8.5625 -26.296875 6.609375 -26.046875 4.453125 -24.890625 C 3.097656 -24.160156 2.003906 -23.21875 1.171875 -22.0625 C 0.347656 -20.914062 -0.128906 -19.675781 -0.265625 -18.34375 C -0.410156 -17.019531 -0.203125 -15.832031 0.359375 -14.78125 C 1.179688 -13.25 2.242188 -11.976562 3.546875 -10.96875 C 4.859375 -9.957031 6.273438 -9.359375 7.796875 -9.171875 C 9.316406 -8.984375 10.773438 -9.265625 12.171875 -10.015625 Z M 12.171875 -10.015625 "/></g></g></g></g></g><g clip-path="url(#b1ab434493)"><g clip-path="url(#2e05e73a46)"><g clip-path="url(#a1525a9256)"><path fill="#27643c" d="M 646.367188 961.257812 L 626.230469 949.710938 L 605.300781 959.753906 L 610.058594 937.035156 L 594.042969 920.234375 L 617.121094 917.738281 L 628.148438 897.3125 L 637.652344 918.492188 L 660.488281 922.667969 L 643.285156 938.25 Z M 646.367188 961.257812 " fill-opacity="1" fill-rule="nonzero"/></g></g></g><g fill="#27643c" fill-opacity="1"><g transform="translate(209.179713, 824.199173)"><g><path d="M 136.578125 -74.375 C 136.578125 -50.28125 130.035156 -31.859375 116.953125 -19.109375 C 103.878906 -6.367188 85.0625 0 60.5 0 L 20.0625 0 L 20.0625 -145.96875 L 64.796875 -145.96875 C 87.492188 -145.96875 105.128906 -139.675781 117.703125 -127.09375 C 130.285156 -114.507812 136.578125 -96.9375 136.578125 -74.375 Z M 118.609375 -73.78125 C 118.609375 -92.8125 113.832031 -107.148438 104.28125 -116.796875 C 94.726562 -126.453125 80.535156 -131.28125 61.703125 -131.28125 L 37.046875 -131.28125 L 37.046875 -14.671875 L 57.703125 -14.671875 C 77.941406 -14.671875 93.148438 -19.644531 103.328125 -29.59375 C 113.515625 -39.550781 118.609375 -54.28125 118.609375 -73.78125 Z M 118.609375 -73.78125 "/></g></g><g transform="translate(358.235484, 824.199173)"><g><path d="M 146.765625 -73.1875 C 146.765625 -54.476562 143.003906 -38.929688 135.484375 -26.546875 C 127.960938 -14.171875 117.34375 -5.785156 103.625 -1.390625 L 138.375 34.75 L 113.71875 34.75 L 85.265625 1.796875 L 79.765625 2 C 58.265625 2 41.675781 -4.570312 30 -17.71875 C 18.320312 -30.863281 12.484375 -49.414062 12.484375 -73.375 C 12.484375 -97.132812 18.335938 -115.554688 30.046875 -128.640625 C 41.765625 -141.722656 58.40625 -148.265625 79.96875 -148.265625 C 100.9375 -148.265625 117.3125 -141.609375 129.09375 -128.296875 C 140.875 -114.984375 146.765625 -96.613281 146.765625 -73.1875 Z M 30.453125 -73.1875 C 30.453125 -53.414062 34.660156 -38.421875 43.078125 -28.203125 C 51.492188 -17.984375 63.722656 -12.875 79.765625 -12.875 C 95.941406 -12.875 108.15625 -17.960938 116.40625 -28.140625 C 124.664062 -38.328125 128.796875 -53.34375 128.796875 -73.1875 C 128.796875 -92.820312 124.679688 -107.710938 116.453125 -117.859375 C 108.234375 -128.003906 96.070312 -133.078125 79.96875 -133.078125 C 63.789062 -133.078125 51.492188 -127.96875 43.078125 -117.75 C 34.660156 -107.539062 30.453125 -92.6875 30.453125 -73.1875 Z M 30.453125 -73.1875 "/></g></g><g transform="translate(517.474569, 824.199173)"><g/></g><g transform="translate(570.587544, 824.199173)"><g><path d="M 136.578125 -74.375 C 136.578125 -50.28125 130.035156 -31.859375 116.953125 -19.109375 C 103.878906 -6.367188 85.0625 0 60.5 0 L 20.0625 0 L 20.0625 -145.96875 L 64.796875 -145.96875 C 87.492188 -145.96875 105.128906 -139.675781 117.703125 -127.09375 C 130.285156 -114.507812 136.578125 -96.9375 136.578125 -74.375 Z M 118.609375 -73.78125 C 118.609375 -92.8125 113.832031 -107.148438 104.28125 -116.796875 C 94.726562 -126.453125 80.535156 -131.28125 61.703125 -131.28125 L 37.046875 -131.28125 L 37.046875 -14.671875 L 57.703125 -14.671875 C 77.941406 -14.671875 93.148438 -19.644531 103.328125 -29.59375 C 113.515625 -39.550781 118.609375 -54.28125 118.609375 -73.78125 Z M 118.609375 -73.78125 "/></g></g><g transform="translate(719.643316, 824.199173)"><g><path d="M 20.0625 0 L 20.0625 -145.96875 L 37.046875 -145.96875 L 37.046875 0 Z M 20.0625 0 "/></g></g><g transform="translate(776.649909, 824.199173)"><g><path d="M 134.078125 0 L 114.71875 0 L 34.9375 -122.5 L 34.140625 -122.5 C 35.203125 -108.125 35.734375 -94.945312 35.734375 -82.96875 L 35.734375 0 L 20.0625 0 L 20.0625 -145.96875 L 39.234375 -145.96875 L 118.8125 -23.96875 L 119.609375 -23.96875 C 119.472656 -25.757812 119.171875 -31.53125 118.703125 -41.28125 C 118.242188 -51.03125 118.078125 -58.003906 118.203125 -62.203125 L 118.203125 -145.96875 L 134.078125 -145.96875 Z M 134.078125 0 "/></g></g></g><g fill="#27643c" fill-opacity="1"><g transform="translate(930.797341, 824.199173)"><g><path d="M 20.0625 0 L 20.0625 -145.96875 L 37.046875 -145.96875 L 37.046875 0 Z M 20.0625 0 "/></g></g></g><g fill="#27643c" fill-opacity="1"><g transform="translate(987.803882, 824.199173)"><g><path d="M 134.078125 0 L 114.71875 0 L 34.9375 -122.5 L 34.140625 -122.5 C 35.203125 -108.125 35.734375 -94.945312 35.734375 -82.96875 L 35.734375 0 L 20.0625 0 L 20.0625 -145.96875 L 39.234375 -145.96875 L 118.8125 -23.96875 L 119.609375 -23.96875 C 119.472656 -25.757812 119.171875 -31.53125 118.703125 -41.28125 C 118.242188 -51.03125 118.078125 -58.003906 118.203125 -62.203125 L 118.203125 -145.96875 L 134.078125 -145.96875 Z M 134.078125 0 "/></g></g></g><g fill="#27643c" fill-opacity="1"><g transform="translate(1141.951301, 824.199173)"><g><path d="M 84.265625 -76.46875 L 133.890625 -76.46875 L 133.890625 -5.484375 C 126.160156 -3.023438 118.300781 -1.164062 110.3125 0.09375 C 102.332031 1.363281 93.082031 2 82.5625 2 C 60.46875 2 43.265625 -4.570312 30.953125 -17.71875 C 18.640625 -30.863281 12.484375 -49.285156 12.484375 -72.984375 C 12.484375 -88.160156 15.523438 -101.453125 21.609375 -112.859375 C 27.703125 -124.273438 36.472656 -132.992188 47.921875 -139.015625 C 59.367188 -145.046875 72.78125 -148.0625 88.15625 -148.0625 C 103.726562 -148.0625 118.238281 -145.195312 131.6875 -139.46875 L 125.09375 -124.5 C 111.914062 -130.09375 99.238281 -132.890625 87.0625 -132.890625 C 69.289062 -132.890625 55.410156 -127.597656 45.421875 -117.015625 C 35.441406 -106.429688 30.453125 -91.753906 30.453125 -72.984375 C 30.453125 -53.273438 35.257812 -38.328125 44.875 -28.140625 C 54.488281 -17.960938 68.617188 -12.875 87.265625 -12.875 C 97.378906 -12.875 107.257812 -14.039062 116.90625 -16.375 L 116.90625 -61.296875 L 84.265625 -61.296875 Z M 84.265625 -76.46875 "/></g></g></g><g transform="matrix(1, 0, 0, 1, 383, 328)"><g clip-path="url(#4686e8f8d3)"><g fill="#ffffff" fill-opacity="1"><g transform="translate(48.765472, 248.62369)"><g><path d="M 4.65625 -8.203125 L 2.515625 -4.4375 L -29.828125 -22.765625 L -19.609375 -40.796875 L -16.28125 -38.90625 L -24.359375 -24.640625 L -12.515625 -17.9375 L -4.921875 -31.34375 L -1.578125 -29.4375 L -9.171875 -16.03125 Z M 4.65625 -8.203125 "/></g></g></g><g fill="#ffffff" fill-opacity="1"><g transform="translate(77.460881, 202.074137)"><g><path d="M -6.140625 -17.03125 L 5.90625 -7.359375 L 3.203125 -3.984375 L -25.78125 -27.25 L -19.40625 -35.203125 C -16.539062 -38.765625 -13.75 -40.847656 -11.03125 -41.453125 C -8.3125 -42.054688 -5.582031 -41.257812 -2.84375 -39.0625 C 0.988281 -35.988281 2.015625 -31.960938 0.234375 -26.984375 L 19.59375 -24.40625 L 16.390625 -20.421875 L -1.296875 -23.078125 Z M -9.046875 -19.359375 L -5.34375 -23.984375 C -3.425781 -26.359375 -2.492188 -28.476562 -2.546875 -30.34375 C -2.609375 -32.21875 -3.582031 -33.914062 -5.46875 -35.4375 C -7.382812 -36.96875 -9.21875 -37.507812 -10.96875 -37.0625 C -12.726562 -36.613281 -14.613281 -35.140625 -16.625 -32.640625 L -20.140625 -28.265625 Z M -9.046875 -19.359375 "/></g></g></g><g fill="#ffffff" fill-opacity="1"><g transform="translate(116.81466, 156.884734)"><g><path d="M 19.234375 -17.25 L 3.796875 -3.40625 L -21.015625 -31.078125 L -5.578125 -44.921875 L -3.03125 -42.078125 L -15.234375 -31.125 L -7.234375 -22.203125 L 4.234375 -32.5 L 6.78125 -29.65625 L -4.6875 -19.359375 L 4.453125 -9.171875 L 16.65625 -20.125 Z M 19.234375 -17.25 "/></g></g></g><g fill="#ffffff" fill-opacity="1"><g transform="translate(160.539784, 120.645674)"><g><path d="M 16.578125 -22.453125 C 18.347656 -19.703125 18.726562 -16.910156 17.71875 -14.078125 C 16.71875 -11.253906 14.507812 -8.738281 11.09375 -6.53125 C 7.382812 -4.144531 4.226562 -2.789062 1.625 -2.46875 L -0.640625 -5.96875 C 0.984375 -6.257812 2.648438 -6.734375 4.359375 -7.390625 C 6.078125 -8.054688 7.675781 -8.863281 9.15625 -9.8125 C 11.582031 -11.375 13.113281 -13.007812 13.75 -14.71875 C 14.382812 -16.425781 14.171875 -18.097656 13.109375 -19.734375 C 12.410156 -20.816406 11.617188 -21.5625 10.734375 -21.96875 C 9.859375 -22.382812 8.722656 -22.554688 7.328125 -22.484375 C 5.929688 -22.410156 3.953125 -22.078125 1.390625 -21.484375 C -2.179688 -20.640625 -5.046875 -20.53125 -7.203125 -21.15625 C -9.367188 -21.78125 -11.191406 -23.238281 -12.671875 -25.53125 C -14.222656 -27.9375 -14.550781 -30.429688 -13.65625 -33.015625 C -12.757812 -35.609375 -10.828125 -37.863281 -7.859375 -39.78125 C -4.742188 -41.789062 -1.519531 -43.066406 1.8125 -43.609375 L 2.71875 -39.703125 C -0.550781 -39.140625 -3.40625 -38.070312 -5.84375 -36.5 C -7.769531 -35.257812 -9.007812 -33.875 -9.5625 -32.34375 C -10.113281 -30.820312 -9.914062 -29.328125 -8.96875 -27.859375 C -8.269531 -26.773438 -7.5 -26.015625 -6.65625 -25.578125 C -5.820312 -25.140625 -4.738281 -24.9375 -3.40625 -24.96875 C -2.082031 -25 -0.222656 -25.300781 2.171875 -25.875 C 6.203125 -26.8125 9.265625 -27.007812 11.359375 -26.46875 C 13.460938 -25.925781 15.203125 -24.585938 16.578125 -22.453125 Z M 16.578125 -22.453125 "/></g></g></g><g fill="#ffffff" fill-opacity="1"><g transform="translate(208.818208, 91.854338)"><g><path d="M 30.703125 -13.015625 L 26.71875 -11.328125 L 19.890625 -27.4375 L 1.859375 -19.796875 L 8.6875 -3.6875 L 4.703125 -2 L -9.8125 -36.21875 L -5.828125 -37.90625 L 0.34375 -23.34375 L 18.375 -30.984375 L 12.203125 -45.546875 L 16.1875 -47.234375 Z M 30.703125 -13.015625 "/></g></g></g><g fill="#ffffff" fill-opacity="1"><g transform="translate(271.014909, 68.783901)"><g/></g></g><g fill="#ffffff" fill-opacity="1"><g transform="translate(311.767961, 59.843777)"><g><path d="M 25.671875 -2.875 L 5.078125 -0.5625 L 0.9375 -37.5 L 21.53125 -39.8125 L 21.96875 -36.015625 L 5.671875 -34.1875 L 7 -22.28125 L 22.3125 -24 L 22.734375 -20.203125 L 7.421875 -18.484375 L 8.953125 -4.875 L 25.25 -6.703125 Z M 25.671875 -2.875 "/></g></g></g><g fill="#ffffff" fill-opacity="1"><g transform="translate(368.354308, 55.687606)"><g><path d="M 28.1875 -35.796875 L 32.828125 -35.5625 L 17.578125 0.890625 L 13.3125 0.671875 L 1.875 -37.125 L 6.453125 -36.890625 L 13.765625 -12.453125 C 14.609375 -9.628906 15.25 -6.90625 15.6875 -4.28125 C 16.445312 -6.988281 17.382812 -9.679688 18.5 -12.359375 Z M 28.1875 -35.796875 "/></g></g></g><g fill="#ffffff" fill-opacity="1"><g transform="translate(426.879499, 60.972546)"><g><path d="M 25.25 5.4375 L 5 1.078125 L 12.828125 -35.265625 L 33.078125 -30.90625 L 32.28125 -27.15625 L 16.25 -30.609375 L 13.71875 -18.890625 L 28.78125 -15.640625 L 27.984375 -11.921875 L 12.921875 -15.171875 L 10.03125 -1.78125 L 26.0625 1.671875 Z M 25.25 5.4375 "/></g></g></g><g fill="#ffffff" fill-opacity="1"><g transform="translate(481.826745, 75.002188)"><g><path d="M 14.453125 -10.90625 L 8.78125 3.46875 L 4.75 1.875 L 18.390625 -32.703125 L 27.890625 -28.953125 C 32.128906 -27.285156 34.941406 -25.238281 36.328125 -22.8125 C 37.710938 -20.382812 37.757812 -17.539062 36.46875 -14.28125 C 34.664062 -9.707031 31.125 -7.53125 25.84375 -7.75 L 29.109375 11.484375 L 24.359375 9.609375 L 21.65625 -8.0625 Z M 15.8125 -14.359375 L 21.3125 -12.1875 C 24.15625 -11.070312 26.460938 -10.816406 28.234375 -11.421875 C 30.003906 -12.035156 31.332031 -13.472656 32.21875 -15.734375 C 33.125 -18.015625 33.097656 -19.925781 32.140625 -21.46875 C 31.191406 -23.007812 29.226562 -24.367188 26.25 -25.546875 L 21.03125 -27.59375 Z M 15.8125 -14.359375 "/></g></g></g><g fill="#ffffff" fill-opacity="1"><g transform="translate(536.648457, 99.19433)"><g><path d="M 22.0625 -8.46875 L 40.09375 -19.3125 L 44.125 -16.90625 L 21.78125 -3.765625 L 14.375 8.609375 L 10.625 6.359375 L 17.921875 -5.84375 L 19.09375 -31.890625 L 23.15625 -29.453125 Z M 22.0625 -8.46875 "/></g></g></g><g fill="#ffffff" fill-opacity="1"><g transform="translate(584.326235, 130.057428)"><g><path d="M 38.71875 8.34375 C 34.707031 12.988281 30.382812 15.453125 25.75 15.734375 C 21.113281 16.023438 16.421875 14.128906 11.671875 10.046875 L 3.875 3.328125 L 28.125 -24.84375 L 36.75 -17.40625 C 41.132812 -13.632812 43.492188 -9.488281 43.828125 -4.96875 C 44.171875 -0.457031 42.46875 3.976562 38.71875 8.34375 Z M 35.15625 5.453125 C 38.3125 1.785156 39.769531 -1.769531 39.53125 -5.21875 C 39.289062 -8.664062 37.351562 -11.957031 33.71875 -15.09375 L 28.96875 -19.1875 L 9.59375 3.328125 L 13.578125 6.765625 C 17.472656 10.117188 21.234375 11.679688 24.859375 11.453125 C 28.484375 11.222656 31.914062 9.222656 35.15625 5.453125 Z M 35.15625 5.453125 "/></g></g></g><g fill="#ffffff" fill-opacity="1"><g transform="translate(632.168865, 174.760511)"><g><path d="M 17.984375 22.09375 L 24.234375 11.03125 L 14.828125 -0.53125 L 2.765625 3.390625 L 0 0 L 38.21875 -12.171875 L 40.515625 -9.359375 L 20.8125 25.546875 Z M 26.390625 7.53125 L 32.609375 -3.09375 C 33.378906 -4.445312 34.394531 -6.019531 35.65625 -7.8125 C 34.164062 -7.082031 32.445312 -6.375 30.5 -5.6875 L 18.8125 -1.796875 Z M 26.390625 7.53125 "/></g></g></g><g fill="#ffffff" fill-opacity="1"><g transform="translate(668.561408, 223.29499)"><g><path d="M 23.375 3.4375 L 44.421875 2.84375 L 46.75 6.90625 L 20.828125 7.390625 L 8.296875 14.546875 L 6.140625 10.765625 L 18.484375 3.71875 L 32.28125 -18.421875 L 34.625 -14.3125 Z M 23.375 3.4375 "/></g></g></g></g></g><g clip-path="url(#868baab527)"><g clip-path="url(#27d5e1cc69)"><g clip-path="url(#b8840c1611)"><path fill="#27643c" d="M 887.910156 528.796875 C 839.183594 511.121094 770.578125 518.625 752.699219 574.808594 C 751.605469 578.238281 750.714844 581.777344 750.007812 585.410156 C 749.289062 581.78125 748.382812 578.246094 747.277344 574.820312 C 729.175781 518.703125 660.539062 511.472656 611.882812 529.335938 C 609.460938 530.230469 608.976562 533.359375 610.996094 534.96875 C 649.035156 565.261719 644.027344 648.160156 736.398438 612.054688 C 721.875 567.214844 692.21875 539.46875 641.195312 535.859375 C 709.207031 535.421875 745.78125 567.101562 749.03125 632.824219 C 749.0625 633.425781 749.707031 633.609375 750.101562 633.351562 C 750.5 633.609375 751.144531 633.421875 751.167969 632.820312 C 754.164062 567.085938 790.613281 535.261719 858.621094 535.433594 C 807.617188 539.242188 778.070312 567.101562 763.722656 612 C 856.234375 647.742188 850.902344 564.867188 888.820312 534.421875 C 890.835938 532.808594 890.339844 529.679688 887.910156 528.796875 " fill-opacity="1" fill-rule="evenodd"/></g></g></g><g clip-path="url(#84c5f6c337)"><g clip-path="url(#0ea61b9e69)"><g clip-path="url(#55871c377a)"><path fill="#27643c" d="M 769.273438 961.257812 L 749.136719 949.710938 L 728.207031 959.753906 L 732.964844 937.035156 L 716.945312 920.234375 L 740.027344 917.738281 L 751.054688 897.3125 L 760.558594 918.492188 L 783.394531 922.667969 L 766.1875 938.25 Z M 769.273438 961.257812 " fill-opacity="1" fill-rule="nonzero"/></g></g></g><g clip-path="url(#9fb79c5285)"><g clip-path="url(#1e8aba08ab)"><g clip-path="url(#7e5e2e4f73)"><path fill="#27643c" d="M 893.394531 961.257812 L 873.253906 949.710938 L 852.328125 959.753906 L 857.085938 937.035156 L 841.066406 920.234375 L 864.144531 917.738281 L 875.175781 897.3125 L 884.679688 918.492188 L 907.515625 922.667969 L 890.308594 938.25 Z M 893.394531 961.257812 " fill-opacity="1" fill-rule="nonzero"/></g></g></g><path stroke-linecap="butt" transform="matrix(0.75, 0, 0, 0.75, 157.400746, 880.458888)" fill="none" stroke-linejoin="miter" d="M 0.00213008 3.997524 L 422.132375 3.997524 " stroke="#27643c" stroke-width="8" stroke-opacity="1" stroke-miterlimit="4"/><path stroke-linecap="butt" transform="matrix(0.75, 0.000000000000000202, -0.000000000000000202, 0.75, 1026.102017, 613.540991)" fill="none" stroke-linejoin="miter" d="M -0.000605958 3.997429 L 422.134847 3.997429 " stroke="#27643c" stroke-width="8" stroke-opacity="1" stroke-miterlimit="4"/><path stroke-linecap="butt" transform="matrix(0.75, 0, 0, 0.75, 1026.102017, 880.458888)" fill="none" stroke-linejoin="miter" d="M -0.000605958 3.997524 L 422.134847 3.997524 " stroke="#27643c" stroke-width="8" stroke-opacity="1" stroke-miterlimit="4"/></svg>